<svg id="Layer_1" data-name="Layer 1" xmlns="http://www.w3.org/2000/svg" viewBox="0 0 4078.75 707.56"><defs><style>.cls-1{fill:#fff;}.cls-2{fill:#fed59f;}.cls-3{fill:#c22036;}.cls-4{fill:#e0732b;}</style></defs><path class="cls-1" d="M394.67,176.79a331.07,331.07,0,0,1-126.07.28,331.15,331.15,0,0,1-89.73,89.47,331.08,331.08,0,0,1,0,125.14,331.12,331.12,0,0,1,89.75,89.48,331.07,331.07,0,0,1,126.07.26,331,331,0,0,1,88.54-88.81,331,331,0,0,1,0-127A331,331,0,0,1,394.67,176.79Z"/><path class="cls-2" d="M483.23,265.62a327.53,327.53,0,0,1,84.52-163.41q-4.83-5.07-9.86-9.92a327.65,327.65,0,0,1-163.22,84.5A331,331,0,0,0,483.23,265.62Z"/><path class="cls-2" d="M394.68,481.42a327.64,327.64,0,0,1,163.41,84.67q5-4.83,9.81-9.87a327.66,327.66,0,0,1-84.68-163.61A331,331,0,0,0,394.68,481.42Z"/><path class="cls-2" d="M268.6,177.07A327.77,327.77,0,0,1,102.33,90.71q-5,4.77-9.82,9.74a327.66,327.66,0,0,1,86.36,166.09A331.15,331.15,0,0,0,268.6,177.07Z"/><path class="cls-2" d="M178.86,391.68A327.65,327.65,0,0,1,92.32,557.92q4.83,5,9.85,9.8a327.62,327.62,0,0,1,166.44-86.56A331.12,331.12,0,0,0,178.86,391.68Z"/><path class="cls-3" d="M483.22,392.61a327.55,327.55,0,0,1,175.28-56.5q.07-3.41.08-6.82,0-3.6-.08-7.18a327.57,327.57,0,0,1-175.27-56.49A331,331,0,0,0,483.22,392.61Z"/><path class="cls-4" d="M483.23,265.62A327.57,327.57,0,0,0,658.5,322.11a328.13,328.13,0,0,0-90.75-219.9A327.53,327.53,0,0,0,483.23,265.62Z"/><path class="cls-4" d="M567.9,556.22a328.16,328.16,0,0,0,90.6-220.11,327.55,327.55,0,0,0-175.28,56.5A327.66,327.66,0,0,0,567.9,556.22Z"/><path class="cls-3" d="M268.61,481.16a327.66,327.66,0,0,1,56.15,177.39q2.26,0,4.53,0c3.15,0,6.28-.05,9.41-.14a327.65,327.65,0,0,1,56-177A331.07,331.07,0,0,0,268.61,481.16Z"/><path class="cls-4" d="M338.7,658.44a328.11,328.11,0,0,0,219.39-92.35,327.64,327.64,0,0,0-163.41-84.67A327.65,327.65,0,0,0,338.7,658.44Z"/><path class="cls-4" d="M102.18,567.07A328.17,328.17,0,0,0,324.24,659.2a327.6,327.6,0,0,0-55.12-177.71A327.68,327.68,0,0,0,102.18,567.07Z"/><path class="cls-3" d="M394.67,176.79A327.68,327.68,0,0,1,338.7.14Q334,0,329.29,0c-1.51,0-3,0-4.53,0a327.71,327.71,0,0,1-56.16,177A331.07,331.07,0,0,0,394.67,176.79Z"/><path class="cls-4" d="M557.89,92.29A328.08,328.08,0,0,0,338.7.14a327.68,327.68,0,0,0,56,176.65A327.65,327.65,0,0,0,557.89,92.29Z"/><path class="cls-4" d="M324.76,0A328.18,328.18,0,0,0,102.33,90.71,327.77,327.77,0,0,0,268.6,177.07,327.71,327.71,0,0,0,324.76,0Z"/><path class="cls-3" d="M178.87,266.54A327.64,327.64,0,0,1,.08,322.22Q0,325.75,0,329.29c0,2.24,0,4.48.07,6.71a327.61,327.61,0,0,1,178.79,55.68A331.08,331.08,0,0,0,178.87,266.54Z"/><path class="cls-4" d="M92.51,100.45A328.16,328.16,0,0,0,.08,322.22a327.64,327.64,0,0,0,178.79-55.68A327.66,327.66,0,0,0,92.51,100.45Z"/><path class="cls-4" d="M.07,336A328.18,328.18,0,0,0,92.32,557.92a327.65,327.65,0,0,0,86.54-166.24A327.61,327.61,0,0,0,.07,336Z"/><path class="cls-4" d="M892.1,573.88h29V705.49h-29Z"/><path class="cls-4" d="M995.89,573.88h25.71l59.38,81v-81h27.51V705.49h-23.71l-61.37-83.67v83.67H995.89Z"/><path class="cls-4" d="M1172.26,686.31l16.52-20.49c11.43,9.77,23.41,16,37.93,16,11.43,0,18.33-4.7,18.33-12.41V669c0-7.33-4.36-11.09-25.59-16.73-25.59-6.77-42.11-14.1-42.11-40.23v-.38c0-23.87,18.52-39.67,44.47-39.67,18.51,0,34.3,6,47.18,16.74l-14.51,21.81c-11.26-8.09-22.33-13-33-13s-16.34,5.08-16.34,11.47v.38c0,8.65,5.45,11.47,27.41,17.29,25.77,7,40.28,16.55,40.28,39.48v.38c0,26.13-19.23,40.8-46.64,40.8A79.26,79.26,0,0,1,1172.26,686.31Z"/><path class="cls-4" d="M1363.42,600.58h-40.05v-26.7h109.05v26.7h-40.05V705.49h-28.95Z"/><path class="cls-4" d="M1493.51,573.88h29V705.49h-29Z"/><path class="cls-4" d="M1623.61,600.58h-40v-26.7h109v26.7h-40V705.49h-29Z"/><path class="cls-4" d="M1750.32,649.09V573.88h26.93v74.45c0,21.44,10,32.53,26.41,32.53s26.4-10.72,26.4-31.59V573.88H1857v74.27c0,39.85-20.81,59.41-53.68,59.41S1750.32,687.82,1750.32,649.09Z"/><path class="cls-4" d="M1954.76,600.58h-40v-26.7h109v26.7h-40V705.49h-29Z"/><path class="cls-4" d="M2082.54,573.88h91.74v25.76h-65.16v26.7h57.34v25.75h-57.34v27.64h66v25.76h-92.61Z"/><path class="cls-3" d="M2808.09,186.72c.08.12-1.27,358.95-1.27,358.95,0,59.1-53.07,91.71-89.09,91.71l-67-.32V571.53h58.44c24.13,0,24-26.75,24-26.75V464.32c-.18.11-19.17,17.63-78.12,11-68.12-7.7-116-66.65-115.68-146.16.42-95.07,59.92-157.86,164.41-161.77C2733.67,166.22,2768.76,173.8,2808.09,186.72ZM2613.94,320c0,62.22,27.5,84.72,62.75,87.16,19.32,1.33,42.38-.3,56.46-13.83V266c0-12.33.11-29.11,0-29.23-9-2.72-30.92-5.78-46.14-4.75C2645.06,234.82,2613.94,267.63,2613.94,320Z"/><path class="cls-4" d="M3133.7,186.72c.08.12-1.27,358.95-1.27,358.95,0,59.1-53.08,91.71-89.1,91.71l-67-.32V571.53h58.44c24.13,0,24-26.75,24-26.75V464.32c-.18.11-19.17,17.63-78.11,11-68.13-7.7-116-66.65-115.69-146.16.43-95.07,59.92-157.86,164.41-161.77C3059.27,166.22,3094.37,173.8,3133.7,186.72ZM2939.55,320c0,62.22,27.49,84.72,62.74,87.16,19.33,1.33,42.38-.3,56.46-13.83V266c0-12.33.12-29.11,0-29.23-9-2.72-30.91-5.78-46.14-4.75C2970.66,234.82,2939.55,267.63,2939.55,320Z"/><path class="cls-3" d="M886.71,454.08c-.08-.13,1.27-359,1.27-359C888,36,941.05,3.41,977.07,3.41l67,.33V69.26H985.65c-24.13,0-24,26.75-24,26.75v80.47c.18-.12,19.17-17.64,78.12-11,68.12,7.7,116,66.66,115.68,146.16-.42,95.08-59.92,157.86-164.4,161.78C961.13,474.57,926,467,886.71,454.08Zm194.15-133.25c0-62.23-27.49-84.73-62.75-87.16-19.32-1.34-42.38.3-56.46,13.82V374.83c0,12.33-.11,29.11,0,29.23,9,2.72,30.92,5.78,46.15,4.75C1049.75,406,1080.86,373.16,1080.86,320.83Z"/><path class="cls-3" d="M1203.78,348.9V174l79.2-1V332.46c0,41.68,8.74,72.79,49.5,72.79,17.47,0,39-6.45,60-25.24V174l79.2-1V464.54l-73-.13-.34-33.33h-1.17c-26.2,31.11-58.81,41.68-92,41.68C1235.81,472.76,1203.78,427.56,1203.78,348.9Z"/><path class="cls-3" d="M2024.26,288.42v176h-79.83V304.86c0-41.68-8.8-72.79-49.89-72.79-17.61,0-39.33,6.46-60.47,25.24V464.4h-79.83v-291l73.62-.46.34,33.33h1.18c26.41-31.11,59.29-41.68,92.75-41.68C1992,164.56,2024.26,209.77,2024.26,288.42Z"/><path class="cls-3" d="M2511.74,288.42V464.5l-79.84-.1V304.86c0-41.68-8.8-72.79-49.89-72.79-17.61,0-39.33,6.46-60.46,25.24v207l-79.83.1v-291l73.61-.46.35,33.33h1.17c26.42-31.11,59.29-41.68,92.75-41.68C2479.45,164.56,2511.74,209.77,2511.74,288.42Z"/><path class="cls-3" d="M1538.12,173.39l66.68-.46.35,32.31h1.17c34.2-36.83,54.7-37,81.11-37,6.46,0,23.71,2.33,34.28,5.85L1703.13,241c-5.23-3-18-5.76-30.36-5.9-21.72-.25-38.86,3.58-58.81,28.82V464.61h-75.84Z"/><path class="cls-3" d="M2084.54,84.25c0-26.42,19.37-45.79,48.72-45.79,29.94,0,48.72,20,48.72,46.37,0,27-20.54,45.79-49.31,45.79C2101.56,130.62,2084.54,110.66,2084.54,84.25Zm8.8,89.41,79.84-.07V464.48h-79.84Z"/><path class="cls-4" d="M3181.19,26.33l79.83.13v446h-79.83Z"/><path class="cls-4" d="M3593.67,447.81l25.9-52.62c37.57,14.08,54.95,17.11,74.91,17.11,33.46,0,46.37-15.27,46.37-29.94,0-11.15-5.28-21.72-38.74-34.05l-23.48-8.21c-47.55-17-67.51-44.62-67.51-83.36,0-41.68,31.61-88.31,113.2-88.31,22.9,0,56.94,4.11,81,14.68l-.08,62.53c-28.77-9.4-59.21-17.34-76.82-17.34-31.11,0-38.65,9.66-38.65,22.57,0,12.33,8.81,21.72,39.92,32.87l24.06,8.22c55.77,20,69.27,55.77,69.27,84.53,0,42.26-33.46,96.27-122.68,96.27C3678,472.76,3629,466.75,3593.67,447.81Z"/><path class="cls-4" d="M3849.39,447.81l25.9-52.62c37.57,14.08,54.95,17.11,74.91,17.11,33.46,0,46.37-15.27,46.37-29.94,0-11.15-5.28-21.72-38.74-34.05l-23.48-8.21c-47.55-17-67.51-44.62-67.51-83.36,0-41.68,31.61-88.31,113.2-88.31,22.89,0,56.94,4.11,81,14.68l-.08,62.53c-28.77-9.4-59.21-17.34-76.82-17.34-31.11,0-38.65,9.66-38.65,22.57,0,12.33,8.81,21.72,39.92,32.87l24.06,8.22c55.77,20,69.27,55.77,69.27,84.53,0,42.26-33.46,96.27-122.68,96.27C3933.76,472.76,3884.76,466.75,3849.39,447.81Z"/><path class="cls-4" d="M3490.88,463.32v9.61h73.89c.37-106.07,1.11-287.12,1.05-287.21-39.33-12.92-74.42-20.5-104.33-19.37-104.49,3.91-164,66.7-164.41,161.77-.35,79.51,47.56,138.46,115.68,146.16C3471.71,481,3490.7,463.43,3490.88,463.32ZM3371.67,319c0-52.34,31.12-85.15,73.08-88,15.22-1,37.14,2,46.14,4.75.1.12,0,16.9,0,29.23V392.3c-14.08,13.53-37.14,15.16-56.46,13.83C3399.17,403.69,3371.67,381.19,3371.67,319Z"/><path class="cls-3" d="M1183,21.52h-27.27V3.34H1230V21.52h-27.26V93H1183Z"/><path class="cls-3" d="M1270.51,3.34h19.71V38.8h36.35V3.34h19.72V93h-19.72V57h-36.35V93h-19.71Z"/><path class="cls-3" d="M1399.28,3.34h63.38V20.88h-43.79V39.06h38V56.59h-38V75.41h44.43V93h-64Z"/></svg>